<?xml version="1.0" standalone="no"?>
<!DOCTYPE svg PUBLIC "-//W3C//DTD SVG 1.1//EN" "http://www.w3.org/Graphics/SVG/1.1/DTD/svg11.dtd" >
<svg>
<metadata>
Created by FontForge 20120731 at Wed Jan 16 17:04:00 2019
 By www
Generated by Metamorphosis Professional 2.0
</metadata>
<defs>
<font id="Code39Barcode.fog" horiz-adv-x="400" >
  <font-face 
    font-family="Code39Barcode.fog"
    font-weight="400"
    font-stretch="normal"
    units-per-em="1000"
    panose-1="2 0 5 3 0 0 0 0 0 0"
    ascent="800"
    descent="-200"
    cap-height="1000"
    bbox="0 -3 750 1000"
    underline-thickness="0"
    underline-position="0"
    unicode-range="U+000D-02C7"
  />
<missing-glyph horiz-adv-x="800" 
d="M50 0v800h700v-800h-700zM700 50v700h-600v-700h600z" />
    <glyph glyph-name=".notdef" unicode="&#x2c7;" horiz-adv-x="800" 
d="M50 0v800h700v-800h-700zM700 50v700h-600v-700h600z" />
    <glyph glyph-name=".notdef" unicode="&#x2db;" horiz-adv-x="800" 
d="M50 0v800h700v-800h-700zM700 50v700h-600v-700h600z" />
    <glyph glyph-name=".notdef" unicode="&#x2dd;" horiz-adv-x="800" 
d="M50 0v800h700v-800h-700zM700 50v700h-600v-700h600z" />
    <glyph glyph-name=".notdef" unicode="&#xb8;" horiz-adv-x="800" 
d="M50 0v800h700v-800h-700zM700 50v700h-600v-700h600z" />
    <glyph glyph-name=".notdef" unicode="&#x2da;" horiz-adv-x="800" 
d="M50 0v800h700v-800h-700zM700 50v700h-600v-700h600z" />
    <glyph glyph-name=".notdef" unicode="&#x2d9;" horiz-adv-x="800" 
d="M50 0v800h700v-800h-700zM700 50v700h-600v-700h600z" />
    <glyph glyph-name=".notdef" unicode="&#x2d8;" horiz-adv-x="800" 
d="M50 0v800h700v-800h-700zM700 50v700h-600v-700h600z" />
    <glyph glyph-name=".notdef" unicode="&#xaf;" horiz-adv-x="800" 
d="M50 0v800h700v-800h-700zM700 50v700h-600v-700h600z" />
    <glyph glyph-name=".notdef" unicode="&#x2dc;" horiz-adv-x="800" 
d="M50 0v800h700v-800h-700zM700 50v700h-600v-700h600z" />
    <glyph glyph-name=".notdef" unicode="&#x2c6;" horiz-adv-x="800" 
d="M50 0v800h700v-800h-700zM700 50v700h-600v-700h600z" />
    <glyph glyph-name=".notdef" unicode="&#x131;" horiz-adv-x="800" 
d="M50 0v800h700v-800h-700zM700 50v700h-600v-700h600z" />
    <glyph glyph-name=".notdef" unicode="&#xd9;" horiz-adv-x="800" 
d="M50 0v800h700v-800h-700zM700 50v700h-600v-700h600z" />
    <glyph glyph-name=".notdef" unicode="&#xdb;" horiz-adv-x="800" 
d="M50 0v800h700v-800h-700zM700 50v700h-600v-700h600z" />
    <glyph glyph-name=".notdef" unicode="&#xda;" horiz-adv-x="800" 
d="M50 0v800h700v-800h-700zM700 50v700h-600v-700h600z" />
    <glyph glyph-name=".notdef" unicode="&#xd2;" horiz-adv-x="800" 
d="M50 0v800h700v-800h-700zM700 50v700h-600v-700h600z" />
    <glyph glyph-name=".notdef" unicode="&#xe01e;" horiz-adv-x="800" 
d="M50 0v800h700v-800h-700zM700 50v700h-600v-700h600z" />
    <glyph glyph-name=".notdef" unicode="&#xd4;" horiz-adv-x="800" 
d="M50 0v800h700v-800h-700zM700 50v700h-600v-700h600z" />
    <glyph glyph-name=".notdef" unicode="&#xd3;" horiz-adv-x="800" 
d="M50 0v800h700v-800h-700zM700 50v700h-600v-700h600z" />
    <glyph glyph-name=".notdef" unicode="&#xcc;" horiz-adv-x="800" 
d="M50 0v800h700v-800h-700zM700 50v700h-600v-700h600z" />
    <glyph glyph-name=".notdef" unicode="&#xcf;" horiz-adv-x="800" 
d="M50 0v800h700v-800h-700zM700 50v700h-600v-700h600z" />
    <glyph glyph-name=".notdef" unicode="&#xce;" horiz-adv-x="800" 
d="M50 0v800h700v-800h-700zM700 50v700h-600v-700h600z" />
    <glyph glyph-name=".notdef" unicode="&#xcd;" horiz-adv-x="800" 
d="M50 0v800h700v-800h-700zM700 50v700h-600v-700h600z" />
    <glyph glyph-name=".notdef" unicode="&#xc8;" horiz-adv-x="800" 
d="M50 0v800h700v-800h-700zM700 50v700h-600v-700h600z" />
    <glyph glyph-name=".notdef" unicode="&#xcb;" horiz-adv-x="800" 
d="M50 0v800h700v-800h-700zM700 50v700h-600v-700h600z" />
    <glyph glyph-name=".notdef" unicode="&#xc1;" horiz-adv-x="800" 
d="M50 0v800h700v-800h-700zM700 50v700h-600v-700h600z" />
    <glyph glyph-name=".notdef" unicode="&#xca;" horiz-adv-x="800" 
d="M50 0v800h700v-800h-700zM700 50v700h-600v-700h600z" />
    <glyph glyph-name=".notdef" unicode="&#xc2;" horiz-adv-x="800" 
d="M50 0v800h700v-800h-700zM700 50v700h-600v-700h600z" />
    <glyph glyph-name=".notdef" unicode="&#x2030;" horiz-adv-x="800" 
d="M50 0v800h700v-800h-700zM700 50v700h-600v-700h600z" />
    <glyph glyph-name=".notdef" unicode="&#x201e;" horiz-adv-x="800" 
d="M50 0v800h700v-800h-700zM700 50v700h-600v-700h600z" />
    <glyph glyph-name=".notdef" unicode="&#x201a;" horiz-adv-x="800" 
d="M50 0v800h700v-800h-700zM700 50v700h-600v-700h600z" />
    <glyph glyph-name=".notdef" unicode="&#xb7;" horiz-adv-x="800" 
d="M50 0v800h700v-800h-700zM700 50v700h-600v-700h600z" />
    <glyph glyph-name=".notdef" unicode="&#x2021;" horiz-adv-x="800" 
d="M50 0v800h700v-800h-700zM700 50v700h-600v-700h600z" />
    <glyph glyph-name=".notdef" unicode="&#xfb02;" horiz-adv-x="800" 
d="M50 0v800h700v-800h-700zM700 50v700h-600v-700h600z" />
    <glyph glyph-name=".notdef" unicode="&#xfb01;" horiz-adv-x="800" 
d="M50 0v800h700v-800h-700zM700 50v700h-600v-700h600z" />
    <glyph glyph-name=".notdef" unicode="&#x203a;" horiz-adv-x="800" 
d="M50 0v800h700v-800h-700zM700 50v700h-600v-700h600z" />
    <glyph glyph-name=".notdef" unicode="&#x2039;" horiz-adv-x="800" 
d="M50 0v800h700v-800h-700zM700 50v700h-600v-700h600z" />
    <glyph glyph-name=".notdef" unicode="&#x20ac;" horiz-adv-x="800" 
d="M50 0v800h700v-800h-700zM700 50v700h-600v-700h600z" />
    <glyph glyph-name=".notdef" unicode="&#x2044;" horiz-adv-x="800" 
d="M50 0v800h700v-800h-700zM700 50v700h-600v-700h600z" />
    <glyph glyph-name=".notdef" unicode="&#x178;" horiz-adv-x="800" 
d="M50 0v800h700v-800h-700zM700 50v700h-600v-700h600z" />
    <glyph glyph-name=".notdef" unicode="&#xff;" horiz-adv-x="800" 
d="M50 0v800h700v-800h-700zM700 50v700h-600v-700h600z" />
    <glyph glyph-name=".notdef" unicode="&#x25ca;" horiz-adv-x="800" 
d="M50 0v800h700v-800h-700zM700 50v700h-600v-700h600z" />
    <glyph glyph-name=".notdef" unicode="&#xf7;" horiz-adv-x="800" 
d="M50 0v800h700v-800h-700zM700 50v700h-600v-700h600z" />
    <glyph glyph-name=".notdef" unicode="&#x2019;" horiz-adv-x="800" 
d="M50 0v800h700v-800h-700zM700 50v700h-600v-700h600z" />
    <glyph glyph-name=".notdef" unicode="&#x2018;" horiz-adv-x="800" 
d="M50 0v800h700v-800h-700zM700 50v700h-600v-700h600z" />
    <glyph glyph-name=".notdef" unicode="&#x201d;" horiz-adv-x="800" 
d="M50 0v800h700v-800h-700zM700 50v700h-600v-700h600z" />
    <glyph glyph-name=".notdef" unicode="&#x201c;" horiz-adv-x="800" 
d="M50 0v800h700v-800h-700zM700 50v700h-600v-700h600z" />
    <glyph glyph-name=".notdef" unicode="&#x2014;" horiz-adv-x="800" 
d="M50 0v800h700v-800h-700zM700 50v700h-600v-700h600z" />
    <glyph glyph-name=".notdef" unicode="&#x2013;" horiz-adv-x="800" 
d="M50 0v800h700v-800h-700zM700 50v700h-600v-700h600z" />
    <glyph glyph-name=".notdef" unicode="&#x153;" horiz-adv-x="800" 
d="M50 0v800h700v-800h-700zM700 50v700h-600v-700h600z" />
    <glyph glyph-name=".notdef" unicode="&#x152;" horiz-adv-x="800" 
d="M50 0v800h700v-800h-700zM700 50v700h-600v-700h600z" />
    <glyph glyph-name=".notdef" unicode="&#xd5;" horiz-adv-x="800" 
d="M50 0v800h700v-800h-700zM700 50v700h-600v-700h600z" />
    <glyph glyph-name=".notdef" unicode="&#xc3;" horiz-adv-x="800" 
d="M50 0v800h700v-800h-700zM700 50v700h-600v-700h600z" />
    <glyph glyph-name=".notdef" unicode="&#xc0;" horiz-adv-x="800" 
d="M50 0v800h700v-800h-700zM700 50v700h-600v-700h600z" />
    <glyph glyph-name=".notdef" unicode="&#x2026;" horiz-adv-x="800" 
d="M50 0v800h700v-800h-700zM700 50v700h-600v-700h600z" />
    <glyph glyph-name=".notdef" unicode="&#xbb;" horiz-adv-x="800" 
d="M50 0v800h700v-800h-700zM700 50v700h-600v-700h600z" />
    <glyph glyph-name=".notdef" unicode="&#xab;" horiz-adv-x="800" 
d="M50 0v800h700v-800h-700zM700 50v700h-600v-700h600z" />
    <glyph glyph-name=".notdef" unicode="&#x394;" horiz-adv-x="800" 
d="M50 0v800h700v-800h-700zM700 50v700h-600v-700h600z" />
    <glyph glyph-name=".notdef" unicode="&#x2248;" horiz-adv-x="800" 
d="M50 0v800h700v-800h-700zM700 50v700h-600v-700h600z" />
    <glyph glyph-name=".notdef" unicode="&#x192;" horiz-adv-x="800" 
d="M50 0v800h700v-800h-700zM700 50v700h-600v-700h600z" />
    <glyph glyph-name=".notdef" unicode="&#x221a;" horiz-adv-x="800" 
d="M50 0v800h700v-800h-700zM700 50v700h-600v-700h600z" />
    <glyph glyph-name=".notdef" unicode="&#xac;" horiz-adv-x="800" 
d="M50 0v800h700v-800h-700zM700 50v700h-600v-700h600z" />
    <glyph glyph-name=".notdef" unicode="&#xa1;" horiz-adv-x="800" 
d="M50 0v800h700v-800h-700zM700 50v700h-600v-700h600z" />
    <glyph glyph-name=".notdef" unicode="&#xbf;" horiz-adv-x="800" 
d="M50 0v800h700v-800h-700zM700 50v700h-600v-700h600z" />
    <glyph glyph-name=".notdef" unicode="&#xf8;" horiz-adv-x="800" 
d="M50 0v800h700v-800h-700zM700 50v700h-600v-700h600z" />
    <glyph glyph-name=".notdef" unicode="&#xe6;" horiz-adv-x="800" 
d="M50 0v800h700v-800h-700zM700 50v700h-600v-700h600z" />
    <glyph glyph-name=".notdef" unicode="&#x3a9;" horiz-adv-x="800" 
d="M50 0v800h700v-800h-700zM700 50v700h-600v-700h600z" />
    <glyph glyph-name=".notdef" unicode="&#xba;" horiz-adv-x="800" 
d="M50 0v800h700v-800h-700zM700 50v700h-600v-700h600z" />
    <glyph glyph-name=".notdef" unicode="&#xaa;" horiz-adv-x="800" 
d="M50 0v800h700v-800h-700zM700 50v700h-600v-700h600z" />
    <glyph glyph-name=".notdef" unicode="&#x222b;" horiz-adv-x="800" 
d="M50 0v800h700v-800h-700zM700 50v700h-600v-700h600z" />
    <glyph glyph-name=".notdef" unicode="&#x3c0;" horiz-adv-x="800" 
d="M50 0v800h700v-800h-700zM700 50v700h-600v-700h600z" />
    <glyph glyph-name=".notdef" unicode="&#x220f;" horiz-adv-x="800" 
d="M50 0v800h700v-800h-700zM700 50v700h-600v-700h600z" />
    <glyph glyph-name=".notdef" unicode="&#x2211;" horiz-adv-x="800" 
d="M50 0v800h700v-800h-700zM700 50v700h-600v-700h600z" />
    <glyph glyph-name=".notdef" unicode="&#x2202;" horiz-adv-x="800" 
d="M50 0v800h700v-800h-700zM700 50v700h-600v-700h600z" />
    <glyph glyph-name=".notdef" unicode="&#xb5;" horiz-adv-x="800" 
d="M50 0v800h700v-800h-700zM700 50v700h-600v-700h600z" />
    <glyph glyph-name=".notdef" unicode="&#xa5;" horiz-adv-x="800" 
d="M50 0v800h700v-800h-700zM700 50v700h-600v-700h600z" />
    <glyph glyph-name=".notdef" unicode="&#x2265;" horiz-adv-x="800" 
d="M50 0v800h700v-800h-700zM700 50v700h-600v-700h600z" />
    <glyph glyph-name=".notdef" unicode="&#x2264;" horiz-adv-x="800" 
d="M50 0v800h700v-800h-700zM700 50v700h-600v-700h600z" />
    <glyph glyph-name=".notdef" unicode="&#xb1;" horiz-adv-x="800" 
d="M50 0v800h700v-800h-700zM700 50v700h-600v-700h600z" />
    <glyph glyph-name=".notdef" unicode="&#x221e;" horiz-adv-x="800" 
d="M50 0v800h700v-800h-700zM700 50v700h-600v-700h600z" />
    <glyph glyph-name=".notdef" unicode="&#xd8;" horiz-adv-x="800" 
d="M50 0v800h700v-800h-700zM700 50v700h-600v-700h600z" />
    <glyph glyph-name=".notdef" unicode="&#xc6;" horiz-adv-x="800" 
d="M50 0v800h700v-800h-700zM700 50v700h-600v-700h600z" />
    <glyph glyph-name=".notdef" unicode="&#x2260;" horiz-adv-x="800" 
d="M50 0v800h700v-800h-700zM700 50v700h-600v-700h600z" />
    <glyph glyph-name=".notdef" unicode="&#xa8;" horiz-adv-x="800" 
d="M50 0v800h700v-800h-700zM700 50v700h-600v-700h600z" />
    <glyph glyph-name=".notdef" unicode="&#xb4;" horiz-adv-x="800" 
d="M50 0v800h700v-800h-700zM700 50v700h-600v-700h600z" />
    <glyph glyph-name=".notdef" unicode="&#x2122;" horiz-adv-x="800" 
d="M50 0v800h700v-800h-700zM700 50v700h-600v-700h600z" />
    <glyph glyph-name=".notdef" unicode="&#xa9;" horiz-adv-x="800" 
d="M50 0v800h700v-800h-700zM700 50v700h-600v-700h600z" />
    <glyph glyph-name=".notdef" unicode="&#xae;" horiz-adv-x="800" 
d="M50 0v800h700v-800h-700zM700 50v700h-600v-700h600z" />
    <glyph glyph-name=".notdef" unicode="&#xdf;" horiz-adv-x="800" 
d="M50 0v800h700v-800h-700zM700 50v700h-600v-700h600z" />
    <glyph glyph-name=".notdef" unicode="&#xb6;" horiz-adv-x="800" 
d="M50 0v800h700v-800h-700zM700 50v700h-600v-700h600z" />
    <glyph glyph-name=".notdef" unicode="&#x2022;" horiz-adv-x="800" 
d="M50 0v800h700v-800h-700zM700 50v700h-600v-700h600z" />
    <glyph glyph-name=".notdef" unicode="&#xa7;" horiz-adv-x="800" 
d="M50 0v800h700v-800h-700zM700 50v700h-600v-700h600z" />
    <glyph glyph-name=".notdef" unicode="&#xa3;" horiz-adv-x="800" 
d="M50 0v800h700v-800h-700zM700 50v700h-600v-700h600z" />
    <glyph glyph-name=".notdef" unicode="&#xa2;" horiz-adv-x="800" 
d="M50 0v800h700v-800h-700zM700 50v700h-600v-700h600z" />
    <glyph glyph-name=".notdef" unicode="&#xb0;" horiz-adv-x="800" 
d="M50 0v800h700v-800h-700zM700 50v700h-600v-700h600z" />
    <glyph glyph-name=".notdef" unicode="&#x2020;" horiz-adv-x="800" 
d="M50 0v800h700v-800h-700zM700 50v700h-600v-700h600z" />
    <glyph glyph-name=".notdef" unicode="&#xfc;" horiz-adv-x="800" 
d="M50 0v800h700v-800h-700zM700 50v700h-600v-700h600z" />
    <glyph glyph-name=".notdef" unicode="&#xfb;" horiz-adv-x="800" 
d="M50 0v800h700v-800h-700zM700 50v700h-600v-700h600z" />
    <glyph glyph-name=".notdef" unicode="&#xf9;" horiz-adv-x="800" 
d="M50 0v800h700v-800h-700zM700 50v700h-600v-700h600z" />
    <glyph glyph-name=".notdef" unicode="&#xfa;" horiz-adv-x="800" 
d="M50 0v800h700v-800h-700zM700 50v700h-600v-700h600z" />
    <glyph glyph-name=".notdef" unicode="&#xf5;" horiz-adv-x="800" 
d="M50 0v800h700v-800h-700zM700 50v700h-600v-700h600z" />
    <glyph glyph-name=".notdef" unicode="&#xf6;" horiz-adv-x="800" 
d="M50 0v800h700v-800h-700zM700 50v700h-600v-700h600z" />
    <glyph glyph-name=".notdef" unicode="&#xf4;" horiz-adv-x="800" 
d="M50 0v800h700v-800h-700zM700 50v700h-600v-700h600z" />
    <glyph glyph-name=".notdef" unicode="&#xf2;" horiz-adv-x="800" 
d="M50 0v800h700v-800h-700zM700 50v700h-600v-700h600z" />
    <glyph glyph-name=".notdef" unicode="&#xf3;" horiz-adv-x="800" 
d="M50 0v800h700v-800h-700zM700 50v700h-600v-700h600z" />
    <glyph glyph-name=".notdef" unicode="&#xf1;" horiz-adv-x="800" 
d="M50 0v800h700v-800h-700zM700 50v700h-600v-700h600z" />
    <glyph glyph-name=".notdef" unicode="&#xef;" horiz-adv-x="800" 
d="M50 0v800h700v-800h-700zM700 50v700h-600v-700h600z" />
    <glyph glyph-name=".notdef" unicode="&#xee;" horiz-adv-x="800" 
d="M50 0v800h700v-800h-700zM700 50v700h-600v-700h600z" />
    <glyph glyph-name=".notdef" unicode="&#xec;" horiz-adv-x="800" 
d="M50 0v800h700v-800h-700zM700 50v700h-600v-700h600z" />
    <glyph glyph-name=".notdef" unicode="&#xed;" horiz-adv-x="800" 
d="M50 0v800h700v-800h-700zM700 50v700h-600v-700h600z" />
    <glyph glyph-name=".notdef" unicode="&#xeb;" horiz-adv-x="800" 
d="M50 0v800h700v-800h-700zM700 50v700h-600v-700h600z" />
    <glyph glyph-name=".notdef" unicode="&#xea;" horiz-adv-x="800" 
d="M50 0v800h700v-800h-700zM700 50v700h-600v-700h600z" />
    <glyph glyph-name=".notdef" unicode="&#xe8;" horiz-adv-x="800" 
d="M50 0v800h700v-800h-700zM700 50v700h-600v-700h600z" />
    <glyph glyph-name=".notdef" unicode="&#xe9;" horiz-adv-x="800" 
d="M50 0v800h700v-800h-700zM700 50v700h-600v-700h600z" />
    <glyph glyph-name=".notdef" unicode="&#xe7;" horiz-adv-x="800" 
d="M50 0v800h700v-800h-700zM700 50v700h-600v-700h600z" />
    <glyph glyph-name=".notdef" unicode="&#xe5;" horiz-adv-x="800" 
d="M50 0v800h700v-800h-700zM700 50v700h-600v-700h600z" />
    <glyph glyph-name=".notdef" unicode="&#xe3;" horiz-adv-x="800" 
d="M50 0v800h700v-800h-700zM700 50v700h-600v-700h600z" />
    <glyph glyph-name=".notdef" unicode="&#xe4;" horiz-adv-x="800" 
d="M50 0v800h700v-800h-700zM700 50v700h-600v-700h600z" />
    <glyph glyph-name=".notdef" unicode="&#xe2;" horiz-adv-x="800" 
d="M50 0v800h700v-800h-700zM700 50v700h-600v-700h600z" />
    <glyph glyph-name=".notdef" unicode="&#xe0;" horiz-adv-x="800" 
d="M50 0v800h700v-800h-700zM700 50v700h-600v-700h600z" />
    <glyph glyph-name=".notdef" unicode="&#xe1;" horiz-adv-x="800" 
d="M50 0v800h700v-800h-700zM700 50v700h-600v-700h600z" />
    <glyph glyph-name=".notdef" unicode="&#xdc;" horiz-adv-x="800" 
d="M50 0v800h700v-800h-700zM700 50v700h-600v-700h600z" />
    <glyph glyph-name=".notdef" unicode="&#xd6;" horiz-adv-x="800" 
d="M50 0v800h700v-800h-700zM700 50v700h-600v-700h600z" />
    <glyph glyph-name=".notdef" unicode="&#xd1;" horiz-adv-x="800" 
d="M50 0v800h700v-800h-700zM700 50v700h-600v-700h600z" />
    <glyph glyph-name=".notdef" unicode="&#xc9;" horiz-adv-x="800" 
d="M50 0v800h700v-800h-700zM700 50v700h-600v-700h600z" />
    <glyph glyph-name=".notdef" unicode="&#xc7;" horiz-adv-x="800" 
d="M50 0v800h700v-800h-700zM700 50v700h-600v-700h600z" />
    <glyph glyph-name=".notdef" unicode="&#xc5;" horiz-adv-x="800" 
d="M50 0v800h700v-800h-700zM700 50v700h-600v-700h600z" />
    <glyph glyph-name=".notdef" unicode="&#xc4;" horiz-adv-x="800" 
d="M50 0v800h700v-800h-700zM700 50v700h-600v-700h600z" />
    <glyph glyph-name=".notdef" horiz-adv-x="800" 
d="M50 0v800h700v-800h-700zM700 50v700h-600v-700h600z" />
    <glyph glyph-name=".notdef" unicode="~" horiz-adv-x="800" 
d="M50 0v800h700v-800h-700zM700 50v700h-600v-700h600z" />
    <glyph glyph-name=".notdef" unicode="}" horiz-adv-x="800" 
d="M50 0v800h700v-800h-700zM700 50v700h-600v-700h600z" />
    <glyph glyph-name=".notdef" unicode="|" horiz-adv-x="800" 
d="M50 0v800h700v-800h-700zM700 50v700h-600v-700h600z" />
    <glyph glyph-name=".notdef" unicode="{" horiz-adv-x="800" 
d="M50 0v800h700v-800h-700zM700 50v700h-600v-700h600z" />
    <glyph glyph-name=".notdef" unicode="z" horiz-adv-x="800" 
d="M50 0v800h700v-800h-700zM700 50v700h-600v-700h600z" />
    <glyph glyph-name=".notdef" unicode="y" horiz-adv-x="800" 
d="M50 0v800h700v-800h-700zM700 50v700h-600v-700h600z" />
    <glyph glyph-name=".notdef" unicode="x" horiz-adv-x="800" 
d="M50 0v800h700v-800h-700zM700 50v700h-600v-700h600z" />
    <glyph glyph-name=".notdef" unicode="w" horiz-adv-x="800" 
d="M50 0v800h700v-800h-700zM700 50v700h-600v-700h600z" />
    <glyph glyph-name=".notdef" unicode="v" horiz-adv-x="800" 
d="M50 0v800h700v-800h-700zM700 50v700h-600v-700h600z" />
    <glyph glyph-name=".notdef" unicode="u" horiz-adv-x="800" 
d="M50 0v800h700v-800h-700zM700 50v700h-600v-700h600z" />
    <glyph glyph-name=".notdef" unicode="t" horiz-adv-x="800" 
d="M50 0v800h700v-800h-700zM700 50v700h-600v-700h600z" />
    <glyph glyph-name=".notdef" unicode="s" horiz-adv-x="800" 
d="M50 0v800h700v-800h-700zM700 50v700h-600v-700h600z" />
    <glyph glyph-name=".notdef" unicode="r" horiz-adv-x="800" 
d="M50 0v800h700v-800h-700zM700 50v700h-600v-700h600z" />
    <glyph glyph-name=".notdef" unicode="q" horiz-adv-x="800" 
d="M50 0v800h700v-800h-700zM700 50v700h-600v-700h600z" />
    <glyph glyph-name=".notdef" unicode="p" horiz-adv-x="800" 
d="M50 0v800h700v-800h-700zM700 50v700h-600v-700h600z" />
    <glyph glyph-name=".notdef" unicode="o" horiz-adv-x="800" 
d="M50 0v800h700v-800h-700zM700 50v700h-600v-700h600z" />
    <glyph glyph-name=".notdef" unicode="n" horiz-adv-x="800" 
d="M50 0v800h700v-800h-700zM700 50v700h-600v-700h600z" />
    <glyph glyph-name=".notdef" unicode="m" horiz-adv-x="800" 
d="M50 0v800h700v-800h-700zM700 50v700h-600v-700h600z" />
    <glyph glyph-name=".notdef" unicode="l" horiz-adv-x="800" 
d="M50 0v800h700v-800h-700zM700 50v700h-600v-700h600z" />
    <glyph glyph-name=".notdef" unicode="k" horiz-adv-x="800" 
d="M50 0v800h700v-800h-700zM700 50v700h-600v-700h600z" />
    <glyph glyph-name=".notdef" unicode="j" horiz-adv-x="800" 
d="M50 0v800h700v-800h-700zM700 50v700h-600v-700h600z" />
    <glyph glyph-name=".notdef" unicode="i" horiz-adv-x="800" 
d="M50 0v800h700v-800h-700zM700 50v700h-600v-700h600z" />
    <glyph glyph-name=".notdef" unicode="h" horiz-adv-x="800" 
d="M50 0v800h700v-800h-700zM700 50v700h-600v-700h600z" />
    <glyph glyph-name=".notdef" unicode="g" horiz-adv-x="800" 
d="M50 0v800h700v-800h-700zM700 50v700h-600v-700h600z" />
    <glyph glyph-name=".notdef" unicode="f" horiz-adv-x="800" 
d="M50 0v800h700v-800h-700zM700 50v700h-600v-700h600z" />
    <glyph glyph-name=".notdef" unicode="e" horiz-adv-x="800" 
d="M50 0v800h700v-800h-700zM700 50v700h-600v-700h600z" />
    <glyph glyph-name=".notdef" unicode="d" horiz-adv-x="800" 
d="M50 0v800h700v-800h-700zM700 50v700h-600v-700h600z" />
    <glyph glyph-name=".notdef" unicode="c" horiz-adv-x="800" 
d="M50 0v800h700v-800h-700zM700 50v700h-600v-700h600z" />
    <glyph glyph-name=".notdef" unicode="b" horiz-adv-x="800" 
d="M50 0v800h700v-800h-700zM700 50v700h-600v-700h600z" />
    <glyph glyph-name=".notdef" unicode="a" horiz-adv-x="800" 
d="M50 0v800h700v-800h-700zM700 50v700h-600v-700h600z" />
    <glyph glyph-name=".notdef" unicode="`" horiz-adv-x="800" 
d="M50 0v800h700v-800h-700zM700 50v700h-600v-700h600z" />
    <glyph glyph-name=".notdef" unicode="_" horiz-adv-x="800" 
d="M50 0v800h700v-800h-700zM700 50v700h-600v-700h600z" />
    <glyph glyph-name=".notdef" unicode="^" horiz-adv-x="800" 
d="M50 0v800h700v-800h-700zM700 50v700h-600v-700h600z" />
    <glyph glyph-name=".notdef" unicode="]" horiz-adv-x="800" 
d="M50 0v800h700v-800h-700zM700 50v700h-600v-700h600z" />
    <glyph glyph-name=".notdef" unicode="\" horiz-adv-x="800" 
d="M50 0v800h700v-800h-700zM700 50v700h-600v-700h600z" />
    <glyph glyph-name=".notdef" unicode="[" horiz-adv-x="800" 
d="M50 0v800h700v-800h-700zM700 50v700h-600v-700h600z" />
    <glyph glyph-name=".notdef" unicode="?" horiz-adv-x="800" 
d="M50 0v800h700v-800h-700zM700 50v700h-600v-700h600z" />
    <glyph glyph-name=".notdef" unicode="&#x3e;" horiz-adv-x="800" 
d="M50 0v800h700v-800h-700zM700 50v700h-600v-700h600z" />
    <glyph glyph-name=".notdef" unicode="=" horiz-adv-x="800" 
d="M50 0v800h700v-800h-700zM700 50v700h-600v-700h600z" />
    <glyph glyph-name=".notdef" unicode="&#x3c;" horiz-adv-x="800" 
d="M50 0v800h700v-800h-700zM700 50v700h-600v-700h600z" />
    <glyph glyph-name=".notdef" unicode=";" horiz-adv-x="800" 
d="M50 0v800h700v-800h-700zM700 50v700h-600v-700h600z" />
    <glyph glyph-name=".notdef" unicode=":" horiz-adv-x="800" 
d="M50 0v800h700v-800h-700zM700 50v700h-600v-700h600z" />
    <glyph glyph-name=".notdef" unicode=")" horiz-adv-x="800" 
d="M50 0v800h700v-800h-700zM700 50v700h-600v-700h600z" />
    <glyph glyph-name=".notdef" unicode="(" horiz-adv-x="800" 
d="M50 0v800h700v-800h-700zM700 50v700h-600v-700h600z" />
    <glyph glyph-name=".notdef" unicode="'" horiz-adv-x="800" 
d="M50 0v800h700v-800h-700zM700 50v700h-600v-700h600z" />
    <glyph glyph-name=".notdef" unicode="&#x26;" horiz-adv-x="800" 
d="M50 0v800h700v-800h-700zM700 50v700h-600v-700h600z" />
    <glyph glyph-name=".notdef" unicode="#" horiz-adv-x="800" 
d="M50 0v800h700v-800h-700zM700 50v700h-600v-700h600z" />
    <glyph glyph-name=".notdef" unicode="&#x22;" horiz-adv-x="800" 
d="M50 0v800h700v-800h-700zM700 50v700h-600v-700h600z" />
    <glyph glyph-name=".notdef" unicode="!" horiz-adv-x="800" 
d="M50 0v800h700v-800h-700zM700 50v700h-600v-700h600z" />
    <glyph glyph-name=".notdef" horiz-adv-x="800" 
d="M50 0v800h700v-800h-700zM700 50v700h-600v-700h600z" />
    <glyph glyph-name=".notdef" horiz-adv-x="800" 
d="M50 0v800h700v-800h-700zM700 50v700h-600v-700h600z" />
    <glyph glyph-name=".notdef" horiz-adv-x="800" 
d="M50 0v800h700v-800h-700zM700 50v700h-600v-700h600z" />
    <glyph glyph-name=".notdef" horiz-adv-x="800" 
d="M50 0v800h700v-800h-700zM700 50v700h-600v-700h600z" />
    <glyph glyph-name=".notdef" horiz-adv-x="800" 
d="M50 0v800h700v-800h-700zM700 50v700h-600v-700h600z" />
    <glyph glyph-name=".notdef" horiz-adv-x="800" 
d="M50 0v800h700v-800h-700zM700 50v700h-600v-700h600z" />
    <glyph glyph-name=".notdef" horiz-adv-x="800" 
d="M50 0v800h700v-800h-700zM700 50v700h-600v-700h600z" />
    <glyph glyph-name=".notdef" horiz-adv-x="800" 
d="M50 0v800h700v-800h-700zM700 50v700h-600v-700h600z" />
    <glyph glyph-name=".notdef" horiz-adv-x="800" 
d="M50 0v800h700v-800h-700zM700 50v700h-600v-700h600z" />
    <glyph glyph-name=".notdef" horiz-adv-x="800" 
d="M50 0v800h700v-800h-700zM700 50v700h-600v-700h600z" />
    <glyph glyph-name=".notdef" horiz-adv-x="800" 
d="M50 0v800h700v-800h-700zM700 50v700h-600v-700h600z" />
    <glyph glyph-name=".notdef" horiz-adv-x="800" 
d="M50 0v800h700v-800h-700zM700 50v700h-600v-700h600z" />
    <glyph glyph-name=".notdef" horiz-adv-x="800" 
d="M50 0v800h700v-800h-700zM700 50v700h-600v-700h600z" />
    <glyph glyph-name=".notdef" horiz-adv-x="800" 
d="M50 0v800h700v-800h-700zM700 50v700h-600v-700h600z" />
    <glyph glyph-name=".notdef" horiz-adv-x="800" 
d="M50 0v800h700v-800h-700zM700 50v700h-600v-700h600z" />
    <glyph glyph-name=".notdef" horiz-adv-x="800" 
d="M50 0v800h700v-800h-700zM700 50v700h-600v-700h600z" />
    <glyph glyph-name=".notdef" horiz-adv-x="800" 
d="M50 0v800h700v-800h-700zM700 50v700h-600v-700h600z" />
    <glyph glyph-name=".notdef" horiz-adv-x="800" 
d="M50 0v800h700v-800h-700zM700 50v700h-600v-700h600z" />
    <glyph glyph-name=".notdef" horiz-adv-x="800" 
d="M50 0v800h700v-800h-700zM700 50v700h-600v-700h600z" />
    <glyph glyph-name=".notdef" unicode="&#xa;" horiz-adv-x="800" 
d="M50 0v800h700v-800h-700zM700 50v700h-600v-700h600z" />
    <glyph glyph-name=".notdef" horiz-adv-x="800" 
d="M50 0v800h700v-800h-700zM700 50v700h-600v-700h600z" />
    <glyph glyph-name=".notdef" horiz-adv-x="800" 
d="M50 0v800h700v-800h-700zM700 50v700h-600v-700h600z" />
    <glyph glyph-name=".notdef" horiz-adv-x="800" 
d="M50 0v800h700v-800h-700zM700 50v700h-600v-700h600z" />
    <glyph glyph-name=".notdef" horiz-adv-x="800" 
d="M50 0v800h700v-800h-700zM700 50v700h-600v-700h600z" />
    <glyph glyph-name=".notdef" horiz-adv-x="800" 
d="M50 0v800h700v-800h-700zM700 50v700h-600v-700h600z" />
    <glyph glyph-name=".notdef" horiz-adv-x="800" 
d="M50 0v800h700v-800h-700zM700 50v700h-600v-700h600z" />
    <glyph glyph-name=".notdef" horiz-adv-x="800" 
d="M50 0v800h700v-800h-700zM700 50v700h-600v-700h600z" />
    <glyph glyph-name="uni001D" horiz-adv-x="0" 
 />
    <glyph glyph-name="uni001D" horiz-adv-x="0" 
 />
    <glyph glyph-name="uni001D" horiz-adv-x="0" 
 />
    <glyph glyph-name="uni000D" unicode="&#xd;" 
 />
    <glyph glyph-name="uni00A0" unicode="&#xa0;" 
 />
    <glyph glyph-name="uni00A0" unicode=" " 
 />
    <glyph glyph-name="uni00A0" unicode="&#x9;" 
 />
    <glyph glyph-name="dollar" unicode="$" 
d="M25 0h-25v1000h25v-1000zM125 0h-25v1000h25v-1000zM375 0h-25v1000h25v-1000zM225 0h-25v1000h25v-1000zM300 1000h25v-1000h-25v1000z" />
    <glyph glyph-name="percent" unicode="%" 
d="M25 0h-25v1000h25v-1000zM75 0h-25v1000h25v-1000zM375 0h-25v1000h25v-1000zM175 0h-25v1000h25v-1000zM250 1000h25v-1000h-25v1000z" />
    <glyph glyph-name="asterisk" unicode="*" 
d="M25 0h-25v1000h25v-1000zM125 0h-25v1000h25v-1000zM375 0h-25v1000h25v-1000zM225 0h-75v1000h75v-1000zM250 1000h75v-1000h-75v1000z" />
    <glyph glyph-name="plus" unicode="+" 
d="M25 0h-25v1000h25v-1000zM125 0h-25v1000h25v-1000zM378 0h-25v1000h25v-1000zM175 0h-25v1000h25v-1000zM250 1000h25v-1000h-25v1000z" />
    <glyph glyph-name="comma" unicode="," 
d="M25 0h-25v1000h25v-1000zM175 0h-75v1000h75v-1000zM375 0h-25v1000h25v-1000zM225 0h-25v1000h25v-1000zM250 1000h75v-1000h-75v1000z" />
    <glyph glyph-name="hyphen" unicode="-" 
d="M25 0h-25v1000h25v-1000zM125 0h-25v1000h25v-1000zM375 0h-75v1000h75v-1000zM175 0h-25v1000h25v-1000zM200 1000h75v-1000h-75v1000z" />
    <glyph glyph-name="period" unicode="." 
d="M75 0h-75v1000h75v-1000zM175 0h-25v1000h25v-1000zM375 0h-25v1000h25v-1000zM225 0h-25v1000h25v-1000zM250 1000h75v-1000h-75v1000z" />
    <glyph glyph-name="slash" unicode="/" 
d="M25 0h-25v1000h25v-1000zM125 0h-25v1000h25v-1000zM375 0h-25v1000h25v-1000zM225 0h-25v1000h25v-1000zM250 1000h25v-1000h-25v1000z" />
    <glyph glyph-name="zero" unicode="0" 
d="M25 0h-25v1000h25v-1000zM75 0h-25v1000h25v-1000zM375 0h-25v1000h25v-1000zM225 0h-75v1000h75v-1000zM250 1000h75v-1000h-75v1000z" />
    <glyph glyph-name="one" unicode="1" 
d="M75 0h-75v1000h75v-1000zM125 0h-25v1000h25v-1000zM375 0h-75v1000h75v-1000zM225 0h-25v1000h25v-1000zM250 1000h25v-1000h-25v1000z" />
    <glyph glyph-name="two" unicode="2" 
d="M25 0h-25v1000h25v-1000zM125 0h-75v1000h75v-1000zM375 0h-75v1000h75v-1000zM225 0h-25v1000h25v-1000zM250 1000h25v-1000h-25v1000z" />
    <glyph glyph-name="three" unicode="3" 
d="M75 0h-75v1000h75v-1000zM175 0h-75v1000h75v-1000zM375 0h-25v1000h25v-1000zM275 0h-25v1000h25v-1000zM300 1000h25v-1000h-25v1000z" />
    <glyph glyph-name="four" unicode="4" 
d="M25 0h-25v1000h25v-1000zM75 0h-25v1000h25v-1000zM375 0h-75v1000h75v-1000zM225 0h-75v1000h75v-1000zM250 1000h25v-1000h-25v1000z" />
    <glyph glyph-name="five" unicode="5" 
d="M75 0h-75v1000h75v-1000zM125 0h-25v1000h25v-1000zM375 -3l-25 3v1000h25v-1003zM275 0h-75v1000h75v-1000zM300 1000h25v-1000h-25v1000z" />
    <glyph glyph-name="six" unicode="6" 
d="M25 0h-25v1000h25v-1000zM125 0h-75v1000h75v-1000zM375 0h-25v1000h25v-1000zM275 0h-75v1000h75v-1000zM300 1000h25v-1000h-25v1000z" />
    <glyph glyph-name="seven" unicode="7" 
d="M25 0h-25v1000h25v-1000zM75 0h-25v1000h25v-1000zM375 0h-75v1000h75v-1000zM175 0h-25v1000h25v-1000zM200 1000h75v-1000h-75v1000z" />
    <glyph glyph-name="eight" unicode="8" 
d="M75 0h-75v1000h75v-1000zM125 0h-25v1000h25v-1000zM375 0h-25v1000h25v-1000zM225 0h-25v1000h25v-1000zM250 1000h75v-1000h-75v1000z" />
    <glyph glyph-name="nine" unicode="9" 
d="M25 0h-25v1000h25v-1000zM125 0h-75v1000h75v-1000zM375 0h-25v1000h25v-1000zM225 0h-25v1000h25v-1000zM250 1000h75v-1000h-75v1000z" />
    <glyph glyph-name="at" unicode="@" 
d="M25 0h-25v1000h25v-1000zM125 0h-25v1000h25v-1000zM375 0h-25v1000h25v-1000zM225 0h-75v1000h75v-1000zM250 1000h75v-1000h-75v1000z" />
    <glyph glyph-name="A" unicode="A" 
d="M75 0h-75v1000h75v-1000zM125 0h-25v1000h25v-1000zM375 0h-75v1000h75v-1000zM175 0h-25v1000h25v-1000zM250 1000h25v-1000h-25v1000z" />
    <glyph glyph-name="B" unicode="B" 
d="M25 0h-25v1000h25v-1000zM125 0h-75v1000h75v-1000zM375 0h-75v1000h75v-1000zM175 0h-25v1000h25v-1000zM250 1000h25v-1000h-25v1000z" />
    <glyph glyph-name="C" unicode="C" 
d="M75 0h-75v1000h75v-1000zM175 0h-75v1000h75v-1000zM375 0h-25v1000h25v-1000zM225 0h-25v1000h25v-1000zM300 1000h25v-1000h-25v1000z" />
    <glyph glyph-name="D" unicode="D" 
d="M25 0h-25v1000h25v-1000zM75 0h-25v1000h25v-1000zM375 0h-75v1000h75v-1000zM175 0h-75v1000h75v-1000zM250 1000h25v-1000h-25v1000z" />
    <glyph glyph-name="E" unicode="E" 
d="M75 0h-75v1000h75v-1000zM125 0h-25v1000h25v-1000zM375 0h-25v1000h25v-1000zM225 0h-75v1000h75v-1000zM300 1000h25v-1000h-25v1000z" />
    <glyph glyph-name="F" unicode="F" 
d="M25 0h-25v1000h25v-1000zM125 0h-75v1000h75v-1000zM375 0h-25v1000h25v-1000zM225 0h-75v1000h75v-1000zM300 1000h25v-1000h-25v1000z" />
    <glyph glyph-name="G" unicode="G" 
d="M25 0h-25v1000h25v-1000zM75 0h-25v1000h25v-1000zM375 0h-75v1000h75v-1000zM125 0h-25v1000h25v-1000zM200 1000h75v-1000h-75v1000z" />
    <glyph glyph-name="H" unicode="H" 
d="M75 0h-75v1000h75v-1000zM125 0h-25v1000h25v-1000zM375 0h-25v1000h25v-1000zM175 0h-25v1000h25v-1000zM250 1000h75v-1000h-75v1000z" />
    <glyph glyph-name="I" unicode="I" 
d="M25 0h-25v1000h25v-1000zM125 0h-75v1000h75v-1000zM375 0h-25v1000h25v-1000zM175 0h-25v1000h25v-1000zM250 1000h75v-1000h-75v1000z" />
    <glyph glyph-name="J" unicode="J" 
d="M25 0h-25v1000h25v-1000zM75 0h-25v1000h25v-1000zM375 0h-25v1000h25v-1000zM175 0h-75v1000h75v-1000zM250 1000h75v-1000h-75v1000z" />
    <glyph glyph-name="K" unicode="K" 
d="M75 0h-75v1000h75v-1000zM125 0h-25v1000h25v-1000zM375 0h-75v1000h75v-1000zM175 0h-25v1000h25v-1000zM200 1000h25v-1000h-25v1000z" />
    <glyph glyph-name="L" unicode="L" 
d="M25 0h-25v1000h25v-1000zM125 0h-75v1000h75v-1000zM375 0h-75v1000h75v-1000zM175 0h-25v1000h25v-1000zM200 1000h25v-1000h-25v1000z" />
    <glyph glyph-name="M" unicode="M" 
d="M75 0h-75v1000h75v-1000zM175 0h-75v1000h75v-1000zM375 0h-25v1000h25v-1000zM225 0h-25v1000h25v-1000zM250 1000h25v-1000h-25v1000z" />
    <glyph glyph-name="N" unicode="N" 
d="M25 0h-25v1000h25v-1000zM75 0h-25v1000h25v-1000zM375 0h-75v1000h75v-1000zM175 0h-75v1000h75v-1000zM200 1000h25v-1000h-25v1000z" />
    <glyph glyph-name="O" unicode="O" 
d="M75 0h-75v1000h75v-1000zM125 0h-25v1000h25v-1000zM375 0h-25v1000h25v-1000zM225 0h-75v1000h75v-1000zM250 1000h25v-1000h-25v1000z" />
    <glyph glyph-name="P" unicode="P" 
d="M25 0h-25v1000h25v-1000zM125 0h-75v1000h75v-1000zM375 0h-25v1000h25v-1000zM225 0h-75v1000h75v-1000zM250 1000h25v-1000h-25v1000z" />
    <glyph glyph-name="Q" unicode="Q" 
d="M25 0h-25v1000h25v-1000zM75 0h-25v1000h25v-1000zM375 0h-75v1000h75v-1000zM125 0h-25v1000h25v-1000zM150 1000h75v-1000h-75v1000z" />
    <glyph glyph-name="R" unicode="R" 
d="M75 0h-75v1000h75v-1000zM125 0h-25v1000h25v-1000zM375 0h-25v1000h25v-1000zM175 0h-25v1000h25v-1000zM200 1000h75v-1000h-75v1000z" />
    <glyph glyph-name="S" unicode="S" 
d="M25 0h-25v1000h25v-1000zM125 0h-75v1000h75v-1000zM375 0h-25v1000h25v-1000zM175 0h-25v1000h25v-1000zM200 1000h75v-1000h-75v1000z" />
    <glyph glyph-name="T" unicode="T" 
d="M25 0h-25v1000h25v-1000zM75 0h-25v1000h25v-1000zM375 0h-25v1000h25v-1000zM175 0h-75v1000h75v-1000zM200 1000h75v-1000h-75v1000z" />
    <glyph glyph-name="U" unicode="U" 
d="M75 0h-75v1000h75v-1000zM175 0h-25v1000h25v-1000zM375 0h-75v1000h75v-1000zM225 0h-25v1000h25v-1000zM250 1000h25v-1000h-25v1000z" />
    <glyph glyph-name="V" unicode="V" 
d="M25 0h-25v1000h25v-1000zM175 0h-75v1000h75v-1000zM375 0h-75v1000h75v-1000zM225 0h-25v1000h25v-1000zM250 1000h25v-1000h-25v1000z" />
    <glyph glyph-name="W" unicode="W" 
d="M75 0h-75v1000h75v-1000zM225 0h-75v1000h75v-1000zM375 0h-25v1000h25v-1000zM275 0h-25v1000h25v-1000zM300 1000h25v-1000h-25v1000z" />
    <glyph glyph-name="X" unicode="X" 
d="M25 0h-25v1000h25v-1000zM125 0h-25v1000h25v-1000zM375 0h-75v1000h75v-1000zM225 0h-75v1000h75v-1000zM250 1000h25v-1000h-25v1000z" />
    <glyph glyph-name="Y" unicode="Y" 
d="M75 0h-75v1000h75v-1000zM175 0h-25v1000h25v-1000zM375 0h-25v1000h25v-1000zM275 0h-75v1000h75v-1000zM300 1000h25v-1000h-25v1000z" />
    <glyph glyph-name="Z" unicode="Z" 
d="M25 0h-25v1000h25v-1000zM175 0h-75v1000h75v-1000zM375 0h-25v1000h25v-1000zM275 0h-75v1000h75v-1000zM300 1000h25v-1000h-25v1000z" />
  </font>
</defs>
</svg>
